<?xml version="1.0" encoding="UTF-8" standalone="no"?>
<!-- Created with Inkscape (http://www.inkscape.org/) -->

<svg
   xmlns:dc="http://purl.org/dc/elements/1.1/"
   xmlns:cc="http://creativecommons.org/ns#"
   xmlns:rdf="http://www.w3.org/1999/02/22-rdf-syntax-ns#"
   xmlns:svg="http://www.w3.org/2000/svg"
   xmlns="http://www.w3.org/2000/svg"
   xmlns:sodipodi="http://sodipodi.sourceforge.net/DTD/sodipodi-0.dtd"
   xmlns:inkscape="http://www.inkscape.org/namespaces/inkscape"
   width="81.894829mm"
   height="84.451569mm"
   viewBox="0 0 290.17853 299.23784"
   id="svg4078"
   version="1.1"
   inkscape:version="0.91 r13725"
   sodipodi:docname="logo.svg">
  <defs
     id="defs4080">
    <clipPath
       clipPathUnits="userSpaceOnUse"
       id="clipPath3594">
      <path
         d="m 362.596,627.08 c -2.299,-3.217 -5.301,-5.701 -8.478,-7.96 l 0,0 c -2.817,-2.004 -5.761,-3.831 -8.68,-5.687 l 0,0 c -1.841,-1.172 -3.505,-2.492 -4.797,-4.295 l 0,0 c -2.678,-3.736 -3.663,-8.049 -4.405,-12.454 l 0,0 c -0.037,-0.215 0.198,-0.476 0.391,-0.903 l 0,0 c 0.735,1.179 1.378,2.154 1.966,3.161 l 0,0 c 2.134,3.656 4.988,6.565 8.685,8.674 l 0,0 c 2.574,1.469 5.067,3.083 7.608,4.611 l 0,0 c 5.811,3.49 7.544,9.251 8.837,15.736 l 0,0 c -0.588,-0.452 -0.934,-0.613 -1.127,-0.883"
         id="path3596"
         inkscape:connector-curvature="0" />
    </clipPath>
    <linearGradient
       x1="0"
       y1="0"
       x2="1"
       y2="0"
       gradientUnits="userSpaceOnUse"
       gradientTransform="matrix(27.490725,0,0,-27.490725,336.23227,611.87219)"
       spreadMethod="pad"
       id="linearGradient3602">
      <stop
         style="stop-opacity:1;stop-color:#a1ac5e"
         offset="0"
         id="stop3604" />
      <stop
         style="stop-opacity:1;stop-color:#32586c"
         offset="0.54546"
         id="stop3606" />
      <stop
         style="stop-opacity:1;stop-color:#32586c"
         offset="0.85907266"
         id="stop3608" />
      <stop
         style="stop-opacity:1;stop-color:#32586c"
         offset="1"
         id="stop3610" />
    </linearGradient>
    <clipPath
       clipPathUnits="userSpaceOnUse"
       id="clipPath3570">
      <path
         d="m 266.872,654.01 c -0.644,-0.578 -1.305,-1.145 -1.875,-1.792 l 0,0 c -1.47,-1.67 -2.903,-3.375 -4.326,-5.087 l 0,0 c -0.211,-0.254 -0.284,-0.624 -0.445,-0.994 l 0,0 c 0.302,-0.049 0.508,-0.151 0.653,-0.095 l 0,0 c 1.728,0.672 3.527,0.68 5.301,0.413 l 0,0 c 3.171,-0.479 6.324,-1.086 9.481,-1.663 l 0,0 c 0.193,-0.036 0.349,-0.279 0.77,-0.633 l 0,0 c -1.112,-0.509 -1.996,-1.057 -2.957,-1.329 l 0,0 c -3.914,-1.109 -7.853,-2.126 -11.779,-3.193 l 0,0 c -1.888,-0.513 -3.765,-1.06 -5.647,-1.592 l 0,0 c -0.006,-0.164 -0.012,-0.328 -0.017,-0.492 l 0,0 c 0.398,-0.093 0.794,-0.255 1.194,-0.267 l 0,0 c 1.539,-0.045 3.081,-0.008 4.62,-0.064 l 0,0 c 2.098,-0.078 4.198,-0.348 6.289,-0.288 l 0,0 c 2.703,0.077 4.907,1.551 7.063,3.014 l 0,0 c 5.103,3.461 9.526,7.675 13.526,12.347 l 0,0 c 0.251,0.293 0.417,0.659 0.724,1.153 l 0,0 c -0.524,0.048 -0.816,0.11 -1.106,0.097 l 0,0 c -2.487,-0.113 -4.931,0.133 -7.355,0.72 l 0,0 c -2.279,0.553 -4.59,0.975 -6.872,1.516 l 0,0 c -0.733,0.175 -1.443,0.263 -2.131,0.263 l 0,0 c -1.874,0 -3.578,-0.658 -5.111,-2.034"
         id="path3572"
         inkscape:connector-curvature="0" />
    </clipPath>
    <linearGradient
       x1="0"
       y1="0"
       x2="1"
       y2="0"
       gradientUnits="userSpaceOnUse"
       gradientTransform="matrix(33.415874,0,0,-33.415874,256.03134,646.4845)"
       spreadMethod="pad"
       id="linearGradient3578">
      <stop
         style="stop-opacity:1;stop-color:#a1ac5e"
         offset="0"
         id="stop3580" />
      <stop
         style="stop-opacity:1;stop-color:#32586c"
         offset="0.54546"
         id="stop3582" />
      <stop
         style="stop-opacity:1;stop-color:#32586c"
         offset="0.85907266"
         id="stop3584" />
      <stop
         style="stop-opacity:1;stop-color:#32586c"
         offset="1"
         id="stop3586" />
    </linearGradient>
    <clipPath
       clipPathUnits="userSpaceOnUse"
       id="clipPath3546">
      <path
         d="m 358.124,770.081 c -1.961,-0.696 -3.391,-2.066 -4.467,-3.75 l 0,0 c -1.262,-1.973 -2.458,-4.007 -3.472,-6.115 l 0,0 c -1.632,-3.392 -3.083,-6.871 -4.632,-10.303 l 0,0 c -0.288,-0.638 -0.681,-1.229 -1.026,-1.841 l 0,0 c -0.16,0.045 -0.32,0.09 -0.48,0.135 l 0,0 c 0.088,1.066 0.137,2.137 0.271,3.199 l 0,0 c 0.398,3.153 0.363,6.29 -0.262,9.413 l 0,0 c -0.414,2.069 -1.261,3.871 -3.097,5.077 l 0,0 c -1.29,0.846 -1.584,0.836 -2.844,0.04 l 0,0 c -1.911,-1.206 -3.083,-3.015 -4.03,-4.978 l 0,0 c -0.204,-0.421 -0.17,-1.117 0.038,-1.551 l 0,0 c 0.825,-1.725 1.764,-3.395 2.658,-5.088 l 0,0 c 0.307,-0.582 0.704,-0.985 1.436,-0.98 l 0,0 c 0.339,0.002 0.679,-0.164 1.264,-0.319 l 0,0 c -0.128,-1.828 -0.199,-3.603 -0.388,-5.364 l 0,0 c -0.242,-2.258 -0.579,-4.506 -0.918,-7.089 l 0,0 c 1.999,0.266 3.348,1.12 4.647,2.05 l 0,0 c 2.33,1.669 3.891,3.976 5.068,6.523 l 0,0 c 1.369,2.967 2.52,6.037 3.897,9.001 l 0,0 c 0.907,1.955 1.999,3.83 3.098,5.688 l 0,0 c 0.487,0.823 1.024,0.876 1.633,0.178 l 0,0 c 0.594,-0.682 1.124,-1.486 1.444,-2.326 l 0,0 c 0.443,-1.161 0.662,-2.407 1.051,-3.899 l 0,0 c 1.029,0.986 1.934,1.796 2.776,2.667 l 0,0 c 3.13,3.231 2.621,3.985 1.358,7.433 l 0,0 c -0.062,0.172 -0.172,0.326 -0.265,0.487 l 0,0 c -0.775,1.319 -1.897,1.997 -3.213,1.997 l 0,0 c -0.491,0 -1.009,-0.094 -1.545,-0.285"
         id="path3548"
         inkscape:connector-curvature="0" />
    </clipPath>
    <linearGradient
       x1="0"
       y1="0"
       x2="1"
       y2="0"
       gradientUnits="userSpaceOnUse"
       gradientTransform="matrix(30.182934,0,0,-30.182934,333.94855,755.4668)"
       spreadMethod="pad"
       id="linearGradient3554">
      <stop
         style="stop-opacity:1;stop-color:#a1ac5e"
         offset="0"
         id="stop3556" />
      <stop
         style="stop-opacity:1;stop-color:#32586c"
         offset="0.54546"
         id="stop3558" />
      <stop
         style="stop-opacity:1;stop-color:#32586c"
         offset="0.85907266"
         id="stop3560" />
      <stop
         style="stop-opacity:1;stop-color:#32586c"
         offset="1"
         id="stop3562" />
    </linearGradient>
    <clipPath
       clipPathUnits="userSpaceOnUse"
       id="clipPath3522">
      <path
         d="m 377.443,660.152 c -2.563,-0.452 -5.037,-1.15 -7.404,-2.231 l 0,0 c -3.362,-1.536 -6.731,-3.055 -10.085,-4.606 l 0,0 c -0.311,-0.145 -0.538,-0.469 -0.859,-0.759 l 0,0 c 4,-6.477 6.157,-13.501 6.612,-21.164 l 0,0 c 2.172,0.995 4.096,1.818 5.968,2.745 l 0,0 c 3.754,1.858 7.476,3.778 11.218,5.661 l 0,0 c 1.491,0.75 1.951,1.991 1.689,3.542 l 0,0 c -0.329,1.939 -0.604,3.899 -1.105,5.795 l 0,0 c -0.936,3.538 -2.628,6.772 -4.324,9.993 l 0,0 c -0.308,0.582 -0.628,1.057 -1.354,1.057 l 0,0 c -0.109,0 -0.227,-0.011 -0.356,-0.033"
         id="path3524"
         inkscape:connector-curvature="0" />
    </clipPath>
    <linearGradient
       x1="0"
       y1="0"
       x2="1"
       y2="0"
       gradientUnits="userSpaceOnUse"
       gradientTransform="matrix(25.556059,0,0,-25.556059,359.09506,645.78857)"
       spreadMethod="pad"
       id="linearGradient3530">
      <stop
         style="stop-opacity:1;stop-color:#a1ac5e"
         offset="0"
         id="stop3532" />
      <stop
         style="stop-opacity:1;stop-color:#32586c"
         offset="0.54546"
         id="stop3534" />
      <stop
         style="stop-opacity:1;stop-color:#32586c"
         offset="0.85907266"
         id="stop3536" />
      <stop
         style="stop-opacity:1;stop-color:#32586c"
         offset="1"
         id="stop3538" />
    </linearGradient>
    <clipPath
       clipPathUnits="userSpaceOnUse"
       id="clipPath3498">
      <path
         d="m 297.698,732.853 c 0.926,-2.474 1.809,-4.771 2.646,-7.084 l 0,0 c 1.157,-3.197 2.117,-6.448 2.581,-9.829 l 0,0 c 0.179,-1.308 -0.043,-2.497 -1.111,-3.348 l 0,0 c -0.522,-0.414 -1.176,-0.67 -1.789,-0.96 l 0,0 c -3.99,-1.88 -8.295,-2.783 -12.494,-4.012 l 0,0 c -1.035,-0.303 -2.069,-0.609 -2.998,-0.882 l 0,0 c 1.262,-3.793 2.523,-7.323 3.604,-10.907 l 0,0 c 1.091,-3.619 0.869,-7.409 1.011,-11.227 l 0,0 c 0.425,0.043 0.674,0.023 0.89,0.098 l 0,0 c 2.915,1.002 5.857,1.934 8.728,3.051 l 0,0 c 3.043,1.183 6.016,2.545 9.022,3.825 l 0,0 c 1.043,0.444 1.421,1.193 1.384,2.345 l 0,0 c -0.075,2.364 -0.46,4.652 -1.15,6.911 l 0,0 c -0.934,3.066 -1.987,6.105 -2.274,9.333 l 0,0 c -0.137,1.533 -0.022,1.713 1.483,2.251 l 0,0 c 4.181,1.493 8.341,3.041 12.532,4.5 l 0,0 c 1.796,0.626 2.545,1.926 2.528,3.668 l 0,0 c -0.018,1.839 0,3.736 -0.432,5.501 l 0,0 c -0.717,2.927 -1.732,5.787 -2.719,8.641 l 0,0 c -0.514,1.486 -1.238,2.899 -1.877,4.367 l 0,0 c -6.624,-2.114 -13.051,-4.164 -19.565,-6.242"
         id="path3500"
         inkscape:connector-curvature="0" />
    </clipPath>
    <linearGradient
       x1="0"
       y1="0"
       x2="1"
       y2="0"
       gradientUnits="userSpaceOnUse"
       gradientTransform="matrix(37.757873,0,0,-37.757873,284.53351,711.84924)"
       spreadMethod="pad"
       id="linearGradient3506">
      <stop
         style="stop-opacity:1;stop-color:#a1ac5e"
         offset="0"
         id="stop3508" />
      <stop
         style="stop-opacity:1;stop-color:#32586c"
         offset="0.54546"
         id="stop3510" />
      <stop
         style="stop-opacity:1;stop-color:#32586c"
         offset="0.85907266"
         id="stop3512" />
      <stop
         style="stop-opacity:1;stop-color:#32586c"
         offset="1"
         id="stop3514" />
    </linearGradient>
    <clipPath
       clipPathUnits="userSpaceOnUse"
       id="clipPath3474">
      <path
         d="m 329.079,794.221 c 0.425,-6.501 0.029,-12.997 -0.627,-19.452 l 0,0 c -0.422,-4.157 -1.442,-8.257 -2.268,-12.367 l 0,0 c -0.915,-4.558 -2.436,-8.928 -4.376,-13.147 l 0,0 c -0.71,-1.543 -1.551,-3.025 -2.333,-4.536 l 0,0 c 0.721,0.213 1.282,0.581 1.614,1.096 l 0,0 c 1.204,1.867 2.443,3.726 3.467,5.692 l 0,0 c 5.081,9.758 8.47,20.117 10.785,30.847 l 0,0 c 0.087,0.402 0.235,0.792 0.426,1.424 l 0,0 c 3.393,-0.738 6.717,-1.369 9.992,-2.193 l 0,0 c 5.158,-1.297 10.147,-3.098 14.979,-5.333 l 0,0 c 13.296,-6.151 24.348,-15.05 32.937,-26.94 l 0,0 c 6.275,-8.685 10.902,-18.192 14.102,-28.42 l 0,0 c 2.164,-6.918 3.776,-13.936 4.454,-21.159 l 0,0 c 1.193,-12.71 0.039,-25.16 -3.889,-37.352 l 0,0 c -3.194,-9.912 -7.856,-19.07 -13.839,-27.552 l 0,0 c -10.069,-14.271 -22.636,-25.971 -37.164,-35.595 l 0,0 c -11.402,-7.552 -23.591,-13.483 -36.752,-17.263 l 0,0 c -5.57,-1.599 -11.225,-2.964 -16.91,-4.084 l 0,0 c -5.882,-1.158 -11.873,-1.555 -17.872,-1.863 l 0,0 c -6.513,-0.334 -12.996,-0.008 -19.449,0.599 l 0,0 c -4.655,0.436 -9.365,0.729 -13.93,1.929 l 0,0 c -0.211,0.056 -0.456,-0.018 -0.685,-0.031 l 0,0 -0.145,-0.429 c 0.74,-0.405 1.456,-0.859 2.222,-1.207 l 0,0 c 5.583,-2.537 11.365,-4.524 17.357,-5.793 l 0,0 c 4.828,-1.023 9.688,-2.033 14.587,-2.549 l 0,0 c 6.258,-0.658 12.57,-0.904 18.874,-0.497 l 0,0 c 3.203,0.207 6.407,0.47 9.594,0.849 l 0,0 c 2.263,0.27 4.497,0.783 6.747,1.175 l 0,0 c 8.007,1.393 15.723,3.81 23.178,6.979 l 0,0 c 12.616,5.364 23.978,12.741 34.275,21.797 l 0,0 c 9.399,8.264 17.583,17.517 24.053,28.286 l 0,0 c 4.643,7.728 8.234,15.911 10.969,24.456 l 0,0 c 1.424,4.453 2.459,9.053 3.35,13.647 l 0,0 c 0.868,4.478 1.666,9.018 1.901,13.562 l 0,0 c 0.511,9.82 0.512,19.639 -1.194,29.403 l 0,0 c -1.139,6.521 -2.563,12.948 -4.617,19.238 l 0,0 c -4.219,12.919 -10.363,24.819 -18.592,35.662 l 0,0 c -6.897,9.089 -14.923,17.009 -24.145,23.692 l 0,0 c -12.384,8.973 -26.02,15.365 -40.789,19.333 l 0,0 c -0.384,0.104 -0.788,0.132 -1.172,0.193 l 0,0 c 0.304,-4.129 0.624,-8.111 0.885,-12.097"
         id="path3476"
         inkscape:connector-curvature="0" />
    </clipPath>
    <linearGradient
       x1="0"
       y1="0"
       x2="1"
       y2="0"
       gradientUnits="userSpaceOnUse"
       gradientTransform="matrix(167.40491,0,0,-167.40491,251.59601,687.08282)"
       spreadMethod="pad"
       id="linearGradient3482">
      <stop
         style="stop-opacity:1;stop-color:#a1ac5e"
         offset="0"
         id="stop3484" />
      <stop
         style="stop-opacity:1;stop-color:#32586c"
         offset="0.54546"
         id="stop3486" />
      <stop
         style="stop-opacity:1;stop-color:#32586c"
         offset="0.85907266"
         id="stop3488" />
      <stop
         style="stop-opacity:1;stop-color:#32586c"
         offset="1"
         id="stop3490" />
    </linearGradient>
    <clipPath
       clipPathUnits="userSpaceOnUse"
       id="clipPath3450">
      <path
         d="m 278.086,806.42 c -2.57,-5.135 -5.138,-10.272 -7.702,-15.41 l 0,0 c -3.62,-7.256 -7.483,-14.355 -12.68,-20.651 l 0,0 c -4.304,-5.216 -9.294,-9.557 -15.375,-12.595 l 0,0 c -4.395,-2.197 -9.074,-3.55 -13.822,-4.685 l 0,0 c -2.155,-0.515 -4.34,-0.954 -6.537,-1.236 l 0,0 c -5.248,-0.676 -10.492,-0.602 -15.643,0.731 l 0,0 c -2.337,0.604 -4.582,1.528 -6.474,3.093 l 0,0 c -1.56,1.291 -1.642,1.912 -0.641,3.622 l 0,0 c 0.343,0.585 0.702,1.167 1.111,1.708 l 0,0 c 2.988,3.955 6.214,7.684 10.062,10.853 l 0,0 c 3.699,3.046 7.726,5.359 12.602,5.752 l 0,0 c 2.641,0.212 5.19,-0.115 7.182,-2.186 l 0,0 c 1.084,-1.128 1.488,-2.384 0.92,-3.898 l 0,0 c -0.203,-0.544 -0.338,-1.114 -0.545,-1.807 l 0,0 c 0.526,-0.044 0.65,-0.079 0.763,-0.058 l 0,0 c 0.116,0.022 0.258,0.07 0.326,0.156 l 0,0 c 1.766,2.226 3.623,4.393 4.4,7.228 l 0,0 c 0.78,2.851 -0.01,5.124 -2.525,6.728 l 0,0 c -2.613,1.666 -5.574,1.986 -8.563,1.752 l 0,0 c -4.156,-0.325 -8.182,-1.332 -11.94,-3.152 l 0,0 c -10.64,-5.15 -17.737,-13.389 -21.145,-24.723 l 0,0 c -1.164,-3.872 -1.221,-7.775 0.092,-11.674 l 0,0 c 1.665,-4.946 5.156,-8.207 9.61,-10.555 l 0,0 c 6.067,-3.198 12.587,-4.201 19.376,-3.755 l 0,0 c 0.252,0.016 0.514,-0.126 0.953,-0.243 l 0,0 c -0.351,-0.381 -0.532,-0.618 -0.754,-0.809 l 0,0 c -2.288,-1.985 -4.638,-3.899 -6.864,-5.951 l 0,0 c -9.401,-8.668 -16.741,-18.779 -21.595,-30.676 l 0,0 c -2.872,-7.041 -4.584,-14.361 -5.402,-21.859 l 0,0 c -0.636,-5.834 -0.551,-11.715 0.288,-17.573 l 0,0 c 0.648,-4.534 1.479,-9.021 2.773,-13.405 l 0,0 c 1.576,-5.346 3.76,-10.455 6.489,-15.323 l 0,0 c 5.694,-10.155 13.44,-18.445 22.896,-25.173 l 0,0 c 6.018,-4.283 12.456,-7.8 19.357,-10.436 l 0,0 c 2.94,-1.122 5.894,-2.234 8.908,-3.128 l 0,0 c 5.026,-1.491 10.131,-2.695 15.343,-3.346 l 0,0 c 3.613,-0.451 7.233,-1.016 10.862,-1.127 l 0,0 c 7.101,-0.219 14.215,-0.344 21.29,0.657 l 0,0 c 4.704,0.665 9.38,1.467 14.004,2.563 l 0,0 c 4.195,0.994 7.973,2.955 11.664,5.106 l 0,0 c 0.239,0.14 0.422,0.378 0.847,0.769 l 0,0 c -0.701,0 -1.11,0.07 -1.486,-0.013 l 0,0 c -1.503,-0.327 -2.995,-0.711 -4.493,-1.059 l 0,0 c -5.79,-1.345 -11.687,-2.02 -17.589,-2.529 l 0,0 c -10.696,-0.921 -21.346,-0.523 -31.943,1.417 l 0,0 c -7.827,1.433 -15.332,3.833 -22.507,7.188 l 0,0 c -12.253,5.73 -22.488,14.066 -30.86,24.675 l 0,0 c -5.512,6.984 -9.624,14.622 -10.926,23.589 l 0,0 c -1.014,6.989 -0.869,13.958 0.483,20.841 l 0,0 c 0.771,3.916 2.075,7.758 3.463,11.513 l 0,0 c 2.387,6.461 5.86,12.371 9.619,18.135 l 0,0 c 4.667,7.157 9.631,14.083 15.186,20.577 l 0,0 c 5.948,6.954 12.001,13.82 17.843,20.86 l 0,0 c 7.236,8.723 13.693,18.001 19.085,27.993 l 0,0 c 3.411,6.319 6.374,12.838 8.34,19.752 l 0,0 c 0.993,3.492 1.625,7.087 2.421,10.636 l 0,0 c 0.792,3.539 0.777,7.113 0.457,10.697 l 0,0 c -0.032,0.36 -0.247,0.703 -0.454,1.262 l 0,0 c -0.29,-0.429 -0.445,-0.611 -0.55,-0.818"
         id="path3452"
         inkscape:connector-curvature="0" />
    </clipPath>
    <linearGradient
       x1="0"
       y1="0"
       x2="1"
       y2="0"
       gradientUnits="userSpaceOnUse"
       gradientTransform="matrix(135.13911,0,0,-135.13911,186.85789,694.84735)"
       spreadMethod="pad"
       id="linearGradient3458">
      <stop
         style="stop-opacity:1;stop-color:#a1ac5e"
         offset="0"
         id="stop3460" />
      <stop
         style="stop-opacity:1;stop-color:#32586c"
         offset="0.54546"
         id="stop3462" />
      <stop
         style="stop-opacity:1;stop-color:#32586c"
         offset="0.85907266"
         id="stop3464" />
      <stop
         style="stop-opacity:1;stop-color:#32586c"
         offset="1"
         id="stop3466" />
    </linearGradient>
    <clipPath
       clipPathUnits="userSpaceOnUse"
       id="clipPath3426">
      <path
         d="m 302.212,806.482 c -0.259,-1.876 -0.483,-3.757 -0.785,-5.625 l 0,0 c -0.796,-4.937 -1.541,-9.884 -2.476,-14.795 l 0,0 c -0.529,-2.782 -1.389,-5.501 -2.106,-8.247 l 0,0 c -1.514,-5.804 -3.556,-11.427 -5.898,-16.941 l 0,0 c -3.15,-7.414 -6.952,-14.494 -11.508,-21.131 l 0,0 c -4.581,-6.674 -9.232,-13.313 -14.142,-19.746 l 0,0 c -5.287,-6.927 -10.961,-13.559 -16.372,-20.394 l 0,0 c -4.257,-5.377 -8.635,-10.689 -12.492,-16.348 l 0,0 c -6.534,-9.587 -10.69,-20.117 -11.531,-31.851 l 0,0 c -0.538,-7.513 0.28,-14.794 2.784,-21.882 l 0,0 c 2.197,-6.223 5.403,-11.914 9.276,-17.242 l 0,0 c 2.597,-3.575 5.583,-6.77 9.179,-9.365 l 0,0 c 4.161,-3.003 8.698,-5.141 13.765,-6.132 l 0,0 c 4.392,-0.858 8.712,-0.774 12.971,0.695 l 0,0 c 4.306,1.486 7.888,4.101 11.063,7.27 l 0,0 c 2.669,2.664 5.184,5.48 7.762,8.233 l 0,0 c 3.089,3.3 6.226,6.553 10.117,8.939 l 0,0 c 5.313,3.259 11.054,4.605 17.211,3.379 l 0,0 c 5.38,-1.072 10.714,-2.375 16.062,-3.601 l 0,0 c 1.243,-0.287 2.464,-0.677 3.876,-1.071 l 0,0 c 0.161,0.892 0.309,1.6 0.41,2.314 l 0,0 c 0.123,0.855 0.185,1.719 0.309,2.574 l 0,0 c 0.715,4.921 0.561,9.868 0.453,14.811 l 0,0 c -0.046,2.107 -1.284,3.505 -3.242,4.035 l 0,0 c -1.652,0.447 -3.389,0.652 -5.102,0.786 l 0,0 c -3.138,0.247 -6.287,0.351 -9.43,0.535 l 0,0 c -2.142,0.126 -4.12,0.854 -5.956,1.899 l 0,0 c -3.751,2.134 -5.403,5.39 -5.139,9.717 l 0,0 c 0.242,3.953 1.435,7.635 3.012,11.198 l 0,0 c 1.549,3.5 3.286,6.916 4.954,10.362 l 0,0 c 0.138,0.286 0.382,0.52 0.682,0.918 l 0,0 c 0.215,-0.542 0.405,-0.868 0.471,-1.218 l 0,0 c 0.41,-2.184 0.743,-4.383 1.194,-6.558 l 0,0 c 0.643,-3.089 1.517,-6.118 2.987,-8.925 l 0,0 c 1.506,-2.879 3.888,-4.397 7.205,-4.28 l 0,0 c 2.363,0.083 4.651,0.613 6.868,1.376 l 0,0 c 3.759,1.293 7.29,3.088 10.507,5.422 l 0,0 c 8.053,5.84 14.592,13.183 20.233,21.279 l 0,0 c 5.9,8.466 9.908,17.934 13.35,27.616 l 0,0 c 3.062,8.614 5.4,17.441 7.101,26.43 l 0,0 c 0.131,0.696 0.311,1.384 0.494,2.193 l 0,0 c -0.698,0.081 -1.179,0.132 -1.657,0.194 l 0,0 c -0.49,0.064 -0.98,0.131 -1.468,0.212 l 0,0 c -6.119,1.016 -12.234,0.562 -18.272,-0.455 l 0,0 c -3.195,-0.539 -6.317,-1.695 -9.368,-2.849 l 0,0 c -5.486,-2.075 -10.037,-5.476 -13.725,-10.088 l 0,0 c -5.443,-6.809 -9.304,-14.405 -11.623,-22.781 l 0,0 c -0.556,-2.01 -0.753,-4.124 -1.052,-6.199 l 0,0 c -0.051,-0.35 0.225,-0.747 0.349,-1.122 l 0,0 c 0.387,0.128 0.878,0.15 1.138,0.407 l 0,0 c 0.562,0.557 1.125,1.177 1.472,1.878 l 0,0 c 0.599,1.212 1.093,2.486 1.529,3.769 l 0,0 c 1.477,4.353 4.108,7.852 7.724,10.645 l 0,0 c 6.129,4.734 13.05,6.929 20.782,6.343 l 0,0 c 3.759,-0.284 7.418,-1.153 11.138,-2.43 l 0,0 c -0.082,-0.719 -0.078,-1.398 -0.245,-2.034 l 0,0 c -0.848,-3.24 -2.06,-6.355 -3.71,-9.261 l 0,0 c -6.278,-11.056 -14.869,-19.862 -25.983,-26.08 l 0,0 c -4.591,-2.568 -9.53,-4.157 -14.91,-3.483 l 0,0 c -3.657,0.458 -6.591,2.089 -8.011,5.703 l 0,0 c -0.539,1.374 -1.089,2.804 -1.255,4.252 l 0,0 c -0.417,3.62 -0.618,7.264 -0.901,10.899 l 0,0 c -0.046,0.583 -0.067,1.168 -0.116,2.032 l 0,0 c -0.517,-0.408 -0.86,-0.567 -1.034,-0.835 l 0,0 c -2.501,-3.825 -5.093,-7.597 -7.432,-11.52 l 0,0 c -2.635,-4.418 -4.547,-9.201 -5.891,-14.154 l 0,0 c -0.966,-3.56 -1.883,-7.174 -1.837,-10.929 l 0,0 c 0.025,-1.979 -0.049,-3.96 0.017,-5.937 l 0,0 c 0.125,-3.732 0.979,-7.338 2.156,-10.858 l 0,0 c 0.839,-2.512 1.857,-4.962 2.846,-7.575 l 0,0 c -0.148,-0.169 -0.251,-0.328 -0.391,-0.44 l 0,0 c -0.239,-0.194 -0.495,-0.371 -0.757,-0.534 l 0,0 c -4.235,-2.638 -7.853,-5.945 -11.11,-9.733 l 0,0 c -2.817,-3.277 -5.814,-6.418 -8.927,-9.416 l 0,0 c -3.075,-2.962 -6.898,-4.695 -10.974,-5.947 l 0,0 c -4.444,-1.364 -9.005,-1.533 -13.577,-1.602 l 0,0 c -4.413,-0.067 -8.759,0.517 -12.934,2.008 l 0,0 c -6.589,2.352 -11.988,6.323 -16.063,12.036 l 0,0 c -3.013,4.225 -4.769,8.883 -4.963,14.122 l 0,0 c -0.214,5.752 1.547,10.951 4.228,15.917 l 0,0 c 3.642,6.748 8.481,12.602 13.649,18.203 l 0,0 c 4.823,5.224 9.79,10.32 14.504,15.641 l 0,0 c 3.604,4.069 6.971,8.354 10.339,12.625 l 0,0 c 6.171,7.827 11.774,16.049 16.683,24.728 l 0,0 c 4.478,7.914 8.428,16.09 11.332,24.721 l 0,0 c 1.297,3.852 2.416,7.785 3.296,11.752 l 0,0 c 0.907,4.09 1.559,8.231 1.897,12.439 l 0,0 c 0.694,8.621 -0.048,17.028 -2.892,25.214 l 0,0 c -0.47,1.351 -1.1,2.647 -1.656,3.968 l 0,0 c -0.154,-0.025 -0.308,-0.05 -0.462,-0.075"
         id="path3428"
         inkscape:connector-curvature="0" />
    </clipPath>
    <linearGradient
       x1="0"
       y1="0"
       x2="1"
       y2="0"
       gradientUnits="userSpaceOnUse"
       gradientTransform="matrix(165.58443,0,0,-165.58443,224.74442,701.39532)"
       spreadMethod="pad"
       id="linearGradient3434">
      <stop
         style="stop-opacity:1;stop-color:#a1ac5e"
         offset="0"
         id="stop3436" />
      <stop
         style="stop-opacity:1;stop-color:#32586c"
         offset="0.54546"
         id="stop3438" />
      <stop
         style="stop-opacity:1;stop-color:#32586c"
         offset="0.85907266"
         id="stop3440" />
      <stop
         style="stop-opacity:1;stop-color:#32586c"
         offset="1"
         id="stop3442" />
    </linearGradient>
  </defs>
  <sodipodi:namedview
     id="base"
     pagecolor="#ffffff"
     bordercolor="#666666"
     borderopacity="1.0"
     inkscape:pageopacity="0.0"
     inkscape:pageshadow="2"
     inkscape:zoom="0.35"
     inkscape:cx="-320.62502"
     inkscape:cy="121.04752"
     inkscape:document-units="px"
     inkscape:current-layer="layer1"
     showgrid="false"
     fit-margin-top="0"
     fit-margin-left="0"
     fit-margin-right="0"
     fit-margin-bottom="0"
     inkscape:window-width="1301"
     inkscape:window-height="744"
     inkscape:window-x="65"
     inkscape:window-y="24"
     inkscape:window-maximized="1" />
  <metadata
     id="metadata4083">
    <rdf:RDF>
      <cc:Work
         rdf:about="">
        <dc:format>image/svg+xml</dc:format>
        <dc:type
           rdf:resource="http://purl.org/dc/dcmitype/StillImage" />
        <dc:title></dc:title>
      </cc:Work>
    </rdf:RDF>
  </metadata>
  <g
     inkscape:label="Layer 1"
     inkscape:groupmode="layer"
     id="layer1"
     transform="translate(-214.19645,-354.1719)">
    <g
       transform="matrix(1.25,0,0,-1.25,-19.376084,1363.2194)"
       id="g3422">
      <g
         id="g3424"
         clip-path="url(#clipPath3426)">
        <g
           id="g3430">
          <g
             id="g3432">
            <path
               d="m 302.212,806.482 c -0.259,-1.876 -0.483,-3.757 -0.785,-5.625 l 0,0 c -0.796,-4.937 -1.541,-9.884 -2.476,-14.795 l 0,0 c -0.529,-2.782 -1.389,-5.501 -2.106,-8.247 l 0,0 c -1.514,-5.804 -3.556,-11.427 -5.898,-16.941 l 0,0 c -3.15,-7.414 -6.952,-14.494 -11.508,-21.131 l 0,0 c -4.581,-6.674 -9.232,-13.313 -14.142,-19.746 l 0,0 c -5.287,-6.927 -10.961,-13.559 -16.372,-20.394 l 0,0 c -4.257,-5.377 -8.635,-10.689 -12.492,-16.348 l 0,0 c -6.534,-9.587 -10.69,-20.117 -11.531,-31.851 l 0,0 c -0.538,-7.513 0.28,-14.794 2.784,-21.882 l 0,0 c 2.197,-6.223 5.403,-11.914 9.276,-17.242 l 0,0 c 2.597,-3.575 5.583,-6.77 9.179,-9.365 l 0,0 c 4.161,-3.003 8.698,-5.141 13.765,-6.132 l 0,0 c 4.392,-0.858 8.712,-0.774 12.971,0.695 l 0,0 c 4.306,1.486 7.888,4.101 11.063,7.27 l 0,0 c 2.669,2.664 5.184,5.48 7.762,8.233 l 0,0 c 3.089,3.3 6.226,6.553 10.117,8.939 l 0,0 c 5.313,3.259 11.054,4.605 17.211,3.379 l 0,0 c 5.38,-1.072 10.714,-2.375 16.062,-3.601 l 0,0 c 1.243,-0.287 2.464,-0.677 3.876,-1.071 l 0,0 c 0.161,0.892 0.309,1.6 0.41,2.314 l 0,0 c 0.123,0.855 0.185,1.719 0.309,2.574 l 0,0 c 0.715,4.921 0.561,9.868 0.453,14.811 l 0,0 c -0.046,2.107 -1.284,3.505 -3.242,4.035 l 0,0 c -1.652,0.447 -3.389,0.652 -5.102,0.786 l 0,0 c -3.138,0.247 -6.287,0.351 -9.43,0.535 l 0,0 c -2.142,0.126 -4.12,0.854 -5.956,1.899 l 0,0 c -3.751,2.134 -5.403,5.39 -5.139,9.717 l 0,0 c 0.242,3.953 1.435,7.635 3.012,11.198 l 0,0 c 1.549,3.5 3.286,6.916 4.954,10.362 l 0,0 c 0.138,0.286 0.382,0.52 0.682,0.918 l 0,0 c 0.215,-0.542 0.405,-0.868 0.471,-1.218 l 0,0 c 0.41,-2.184 0.743,-4.383 1.194,-6.558 l 0,0 c 0.643,-3.089 1.517,-6.118 2.987,-8.925 l 0,0 c 1.506,-2.879 3.888,-4.397 7.205,-4.28 l 0,0 c 2.363,0.083 4.651,0.613 6.868,1.376 l 0,0 c 3.759,1.293 7.29,3.088 10.507,5.422 l 0,0 c 8.053,5.84 14.592,13.183 20.233,21.279 l 0,0 c 5.9,8.466 9.908,17.934 13.35,27.616 l 0,0 c 3.062,8.614 5.4,17.441 7.101,26.43 l 0,0 c 0.131,0.696 0.311,1.384 0.494,2.193 l 0,0 c -0.698,0.081 -1.179,0.132 -1.657,0.194 l 0,0 c -0.49,0.064 -0.98,0.131 -1.468,0.212 l 0,0 c -6.119,1.016 -12.234,0.562 -18.272,-0.455 l 0,0 c -3.195,-0.539 -6.317,-1.695 -9.368,-2.849 l 0,0 c -5.486,-2.075 -10.037,-5.476 -13.725,-10.088 l 0,0 c -5.443,-6.809 -9.304,-14.405 -11.623,-22.781 l 0,0 c -0.556,-2.01 -0.753,-4.124 -1.052,-6.199 l 0,0 c -0.051,-0.35 0.225,-0.747 0.349,-1.122 l 0,0 c 0.387,0.128 0.878,0.15 1.138,0.407 l 0,0 c 0.562,0.557 1.125,1.177 1.472,1.878 l 0,0 c 0.599,1.212 1.093,2.486 1.529,3.769 l 0,0 c 1.477,4.353 4.108,7.852 7.724,10.645 l 0,0 c 6.129,4.734 13.05,6.929 20.782,6.343 l 0,0 c 3.759,-0.284 7.418,-1.153 11.138,-2.43 l 0,0 c -0.082,-0.719 -0.078,-1.398 -0.245,-2.034 l 0,0 c -0.848,-3.24 -2.06,-6.355 -3.71,-9.261 l 0,0 c -6.278,-11.056 -14.869,-19.862 -25.983,-26.08 l 0,0 c -4.591,-2.568 -9.53,-4.157 -14.91,-3.483 l 0,0 c -3.657,0.458 -6.591,2.089 -8.011,5.703 l 0,0 c -0.539,1.374 -1.089,2.804 -1.255,4.252 l 0,0 c -0.417,3.62 -0.618,7.264 -0.901,10.899 l 0,0 c -0.046,0.583 -0.067,1.168 -0.116,2.032 l 0,0 c -0.517,-0.408 -0.86,-0.567 -1.034,-0.835 l 0,0 c -2.501,-3.825 -5.093,-7.597 -7.432,-11.52 l 0,0 c -2.635,-4.418 -4.547,-9.201 -5.891,-14.154 l 0,0 c -0.966,-3.56 -1.883,-7.174 -1.837,-10.929 l 0,0 c 0.025,-1.979 -0.049,-3.96 0.017,-5.937 l 0,0 c 0.125,-3.732 0.979,-7.338 2.156,-10.858 l 0,0 c 0.839,-2.512 1.857,-4.962 2.846,-7.575 l 0,0 c -0.148,-0.169 -0.251,-0.328 -0.391,-0.44 l 0,0 c -0.239,-0.194 -0.495,-0.371 -0.757,-0.534 l 0,0 c -4.235,-2.638 -7.853,-5.945 -11.11,-9.733 l 0,0 c -2.817,-3.277 -5.814,-6.418 -8.927,-9.416 l 0,0 c -3.075,-2.962 -6.898,-4.695 -10.974,-5.947 l 0,0 c -4.444,-1.364 -9.005,-1.533 -13.577,-1.602 l 0,0 c -4.413,-0.067 -8.759,0.517 -12.934,2.008 l 0,0 c -6.589,2.352 -11.988,6.323 -16.063,12.036 l 0,0 c -3.013,4.225 -4.769,8.883 -4.963,14.122 l 0,0 c -0.214,5.752 1.547,10.951 4.228,15.917 l 0,0 c 3.642,6.748 8.481,12.602 13.649,18.203 l 0,0 c 4.823,5.224 9.79,10.32 14.504,15.641 l 0,0 c 3.604,4.069 6.971,8.354 10.339,12.625 l 0,0 c 6.171,7.827 11.774,16.049 16.683,24.728 l 0,0 c 4.478,7.914 8.428,16.09 11.332,24.721 l 0,0 c 1.297,3.852 2.416,7.785 3.296,11.752 l 0,0 c 0.907,4.09 1.559,8.231 1.897,12.439 l 0,0 c 0.694,8.621 -0.048,17.028 -2.892,25.214 l 0,0 c -0.47,1.351 -1.1,2.647 -1.656,3.968 l 0,0 c -0.154,-0.025 -0.308,-0.05 -0.462,-0.075"
               style="fill:url(#linearGradient3434);stroke:none"
               id="path3444"
               inkscape:connector-curvature="0" />
          </g>
        </g>
      </g>
    </g>
    <g
       transform="matrix(1.25,0,0,-1.25,-19.376084,1363.2194)"
       id="g3446">
      <g
         id="g3448"
         clip-path="url(#clipPath3450)">
        <g
           id="g3454">
          <g
             id="g3456">
            <path
               d="m 278.086,806.42 c -2.57,-5.135 -5.138,-10.272 -7.702,-15.41 l 0,0 c -3.62,-7.256 -7.483,-14.355 -12.68,-20.651 l 0,0 c -4.304,-5.216 -9.294,-9.557 -15.375,-12.595 l 0,0 c -4.395,-2.197 -9.074,-3.55 -13.822,-4.685 l 0,0 c -2.155,-0.515 -4.34,-0.954 -6.537,-1.236 l 0,0 c -5.248,-0.676 -10.492,-0.602 -15.643,0.731 l 0,0 c -2.337,0.604 -4.582,1.528 -6.474,3.093 l 0,0 c -1.56,1.291 -1.642,1.912 -0.641,3.622 l 0,0 c 0.343,0.585 0.702,1.167 1.111,1.708 l 0,0 c 2.988,3.955 6.214,7.684 10.062,10.853 l 0,0 c 3.699,3.046 7.726,5.359 12.602,5.752 l 0,0 c 2.641,0.212 5.19,-0.115 7.182,-2.186 l 0,0 c 1.084,-1.128 1.488,-2.384 0.92,-3.898 l 0,0 c -0.203,-0.544 -0.338,-1.114 -0.545,-1.807 l 0,0 c 0.526,-0.044 0.65,-0.079 0.763,-0.058 l 0,0 c 0.116,0.022 0.258,0.07 0.326,0.156 l 0,0 c 1.766,2.226 3.623,4.393 4.4,7.228 l 0,0 c 0.78,2.851 -0.01,5.124 -2.525,6.728 l 0,0 c -2.613,1.666 -5.574,1.986 -8.563,1.752 l 0,0 c -4.156,-0.325 -8.182,-1.332 -11.94,-3.152 l 0,0 c -10.64,-5.15 -17.737,-13.389 -21.145,-24.723 l 0,0 c -1.164,-3.872 -1.221,-7.775 0.092,-11.674 l 0,0 c 1.665,-4.946 5.156,-8.207 9.61,-10.555 l 0,0 c 6.067,-3.198 12.587,-4.201 19.376,-3.755 l 0,0 c 0.252,0.016 0.514,-0.126 0.953,-0.243 l 0,0 c -0.351,-0.381 -0.532,-0.618 -0.754,-0.809 l 0,0 c -2.288,-1.985 -4.638,-3.899 -6.864,-5.951 l 0,0 c -9.401,-8.668 -16.741,-18.779 -21.595,-30.676 l 0,0 c -2.872,-7.041 -4.584,-14.361 -5.402,-21.859 l 0,0 c -0.636,-5.834 -0.551,-11.715 0.288,-17.573 l 0,0 c 0.648,-4.534 1.479,-9.021 2.773,-13.405 l 0,0 c 1.576,-5.346 3.76,-10.455 6.489,-15.323 l 0,0 c 5.694,-10.155 13.44,-18.445 22.896,-25.173 l 0,0 c 6.018,-4.283 12.456,-7.8 19.357,-10.436 l 0,0 c 2.94,-1.122 5.894,-2.234 8.908,-3.128 l 0,0 c 5.026,-1.491 10.131,-2.695 15.343,-3.346 l 0,0 c 3.613,-0.451 7.233,-1.016 10.862,-1.127 l 0,0 c 7.101,-0.219 14.215,-0.344 21.29,0.657 l 0,0 c 4.704,0.665 9.38,1.467 14.004,2.563 l 0,0 c 4.195,0.994 7.973,2.955 11.664,5.106 l 0,0 c 0.239,0.14 0.422,0.378 0.847,0.769 l 0,0 c -0.701,0 -1.11,0.07 -1.486,-0.013 l 0,0 c -1.503,-0.327 -2.995,-0.711 -4.493,-1.059 l 0,0 c -5.79,-1.345 -11.687,-2.02 -17.589,-2.529 l 0,0 c -10.696,-0.921 -21.346,-0.523 -31.943,1.417 l 0,0 c -7.827,1.433 -15.332,3.833 -22.507,7.188 l 0,0 c -12.253,5.73 -22.488,14.066 -30.86,24.675 l 0,0 c -5.512,6.984 -9.624,14.622 -10.926,23.589 l 0,0 c -1.014,6.989 -0.869,13.958 0.483,20.841 l 0,0 c 0.771,3.916 2.075,7.758 3.463,11.513 l 0,0 c 2.387,6.461 5.86,12.371 9.619,18.135 l 0,0 c 4.667,7.157 9.631,14.083 15.186,20.577 l 0,0 c 5.948,6.954 12.001,13.82 17.843,20.86 l 0,0 c 7.236,8.723 13.693,18.001 19.085,27.993 l 0,0 c 3.411,6.319 6.374,12.838 8.34,19.752 l 0,0 c 0.993,3.492 1.625,7.087 2.421,10.636 l 0,0 c 0.792,3.539 0.777,7.113 0.457,10.697 l 0,0 c -0.032,0.36 -0.247,0.703 -0.454,1.262 l 0,0 c -0.29,-0.429 -0.445,-0.611 -0.55,-0.818"
               style="fill:url(#linearGradient3458);stroke:none"
               id="path3468"
               inkscape:connector-curvature="0" />
          </g>
        </g>
      </g>
    </g>
    <g
       transform="matrix(1.25,0,0,-1.25,-19.376084,1363.2194)"
       id="g3470">
      <g
         id="g3472"
         clip-path="url(#clipPath3474)">
        <g
           id="g3478">
          <g
             id="g3480">
            <path
               d="m 329.079,794.221 c 0.425,-6.501 0.029,-12.997 -0.627,-19.452 l 0,0 c -0.422,-4.157 -1.442,-8.257 -2.268,-12.367 l 0,0 c -0.915,-4.558 -2.436,-8.928 -4.376,-13.147 l 0,0 c -0.71,-1.543 -1.551,-3.025 -2.333,-4.536 l 0,0 c 0.721,0.213 1.282,0.581 1.614,1.096 l 0,0 c 1.204,1.867 2.443,3.726 3.467,5.692 l 0,0 c 5.081,9.758 8.47,20.117 10.785,30.847 l 0,0 c 0.087,0.402 0.235,0.792 0.426,1.424 l 0,0 c 3.393,-0.738 6.717,-1.369 9.992,-2.193 l 0,0 c 5.158,-1.297 10.147,-3.098 14.979,-5.333 l 0,0 c 13.296,-6.151 24.348,-15.05 32.937,-26.94 l 0,0 c 6.275,-8.685 10.902,-18.192 14.102,-28.42 l 0,0 c 2.164,-6.918 3.776,-13.936 4.454,-21.159 l 0,0 c 1.193,-12.71 0.039,-25.16 -3.889,-37.352 l 0,0 c -3.194,-9.912 -7.856,-19.07 -13.839,-27.552 l 0,0 c -10.069,-14.271 -22.636,-25.971 -37.164,-35.595 l 0,0 c -11.402,-7.552 -23.591,-13.483 -36.752,-17.263 l 0,0 c -5.57,-1.599 -11.225,-2.964 -16.91,-4.084 l 0,0 c -5.882,-1.158 -11.873,-1.555 -17.872,-1.863 l 0,0 c -6.513,-0.334 -12.996,-0.008 -19.449,0.599 l 0,0 c -4.655,0.436 -9.365,0.729 -13.93,1.929 l 0,0 c -0.211,0.056 -0.456,-0.018 -0.685,-0.031 l 0,0 -0.145,-0.429 c 0.74,-0.405 1.456,-0.859 2.222,-1.207 l 0,0 c 5.583,-2.537 11.365,-4.524 17.357,-5.793 l 0,0 c 4.828,-1.023 9.688,-2.033 14.587,-2.549 l 0,0 c 6.258,-0.658 12.57,-0.904 18.874,-0.497 l 0,0 c 3.203,0.207 6.407,0.47 9.594,0.849 l 0,0 c 2.263,0.27 4.497,0.783 6.747,1.175 l 0,0 c 8.007,1.393 15.723,3.81 23.178,6.979 l 0,0 c 12.616,5.364 23.978,12.741 34.275,21.797 l 0,0 c 9.399,8.264 17.583,17.517 24.053,28.286 l 0,0 c 4.643,7.728 8.234,15.911 10.969,24.456 l 0,0 c 1.424,4.453 2.459,9.053 3.35,13.647 l 0,0 c 0.868,4.478 1.666,9.018 1.901,13.562 l 0,0 c 0.511,9.82 0.512,19.639 -1.194,29.403 l 0,0 c -1.139,6.521 -2.563,12.948 -4.617,19.238 l 0,0 c -4.219,12.919 -10.363,24.819 -18.592,35.662 l 0,0 c -6.897,9.089 -14.923,17.009 -24.145,23.692 l 0,0 c -12.384,8.973 -26.02,15.365 -40.789,19.333 l 0,0 c -0.384,0.104 -0.788,0.132 -1.172,0.193 l 0,0 c 0.304,-4.129 0.624,-8.111 0.885,-12.097"
               style="fill:url(#linearGradient3482);stroke:none"
               id="path3492"
               inkscape:connector-curvature="0" />
          </g>
        </g>
      </g>
    </g>
    <g
       transform="matrix(1.25,0,0,-1.25,-19.376084,1363.2194)"
       id="g3494">
      <g
         id="g3496"
         clip-path="url(#clipPath3498)">
        <g
           id="g3502">
          <g
             id="g3504">
            <path
               d="m 297.698,732.853 c 0.926,-2.474 1.809,-4.771 2.646,-7.084 l 0,0 c 1.157,-3.197 2.117,-6.448 2.581,-9.829 l 0,0 c 0.179,-1.308 -0.043,-2.497 -1.111,-3.348 l 0,0 c -0.522,-0.414 -1.176,-0.67 -1.789,-0.96 l 0,0 c -3.99,-1.88 -8.295,-2.783 -12.494,-4.012 l 0,0 c -1.035,-0.303 -2.069,-0.609 -2.998,-0.882 l 0,0 c 1.262,-3.793 2.523,-7.323 3.604,-10.907 l 0,0 c 1.091,-3.619 0.869,-7.409 1.011,-11.227 l 0,0 c 0.425,0.043 0.674,0.023 0.89,0.098 l 0,0 c 2.915,1.002 5.857,1.934 8.728,3.051 l 0,0 c 3.043,1.183 6.016,2.545 9.022,3.825 l 0,0 c 1.043,0.444 1.421,1.193 1.384,2.345 l 0,0 c -0.075,2.364 -0.46,4.652 -1.15,6.911 l 0,0 c -0.934,3.066 -1.987,6.105 -2.274,9.333 l 0,0 c -0.137,1.533 -0.022,1.713 1.483,2.251 l 0,0 c 4.181,1.493 8.341,3.041 12.532,4.5 l 0,0 c 1.796,0.626 2.545,1.926 2.528,3.668 l 0,0 c -0.018,1.839 0,3.736 -0.432,5.501 l 0,0 c -0.717,2.927 -1.732,5.787 -2.719,8.641 l 0,0 c -0.514,1.486 -1.238,2.899 -1.877,4.367 l 0,0 c -6.624,-2.114 -13.051,-4.164 -19.565,-6.242"
               style="fill:url(#linearGradient3506);stroke:none"
               id="path3516"
               inkscape:connector-curvature="0" />
          </g>
        </g>
      </g>
    </g>
    <g
       transform="matrix(1.25,0,0,-1.25,-19.376084,1363.2194)"
       id="g3518">
      <g
         id="g3520"
         clip-path="url(#clipPath3522)">
        <g
           id="g3526">
          <g
             id="g3528">
            <path
               d="m 377.443,660.152 c -2.563,-0.452 -5.037,-1.15 -7.404,-2.231 l 0,0 c -3.362,-1.536 -6.731,-3.055 -10.085,-4.606 l 0,0 c -0.311,-0.145 -0.538,-0.469 -0.859,-0.759 l 0,0 c 4,-6.477 6.157,-13.501 6.612,-21.164 l 0,0 c 2.172,0.995 4.096,1.818 5.968,2.745 l 0,0 c 3.754,1.858 7.476,3.778 11.218,5.661 l 0,0 c 1.491,0.75 1.951,1.991 1.689,3.542 l 0,0 c -0.329,1.939 -0.604,3.899 -1.105,5.795 l 0,0 c -0.936,3.538 -2.628,6.772 -4.324,9.993 l 0,0 c -0.308,0.582 -0.628,1.057 -1.354,1.057 l 0,0 c -0.109,0 -0.227,-0.011 -0.356,-0.033"
               style="fill:url(#linearGradient3530);stroke:none"
               id="path3540"
               inkscape:connector-curvature="0" />
          </g>
        </g>
      </g>
    </g>
    <g
       transform="matrix(1.25,0,0,-1.25,-19.376084,1363.2194)"
       id="g3542">
      <g
         id="g3544"
         clip-path="url(#clipPath3546)">
        <g
           id="g3550">
          <g
             id="g3552">
            <path
               d="m 358.124,770.081 c -1.961,-0.696 -3.391,-2.066 -4.467,-3.75 l 0,0 c -1.262,-1.973 -2.458,-4.007 -3.472,-6.115 l 0,0 c -1.632,-3.392 -3.083,-6.871 -4.632,-10.303 l 0,0 c -0.288,-0.638 -0.681,-1.229 -1.026,-1.841 l 0,0 c -0.16,0.045 -0.32,0.09 -0.48,0.135 l 0,0 c 0.088,1.066 0.137,2.137 0.271,3.199 l 0,0 c 0.398,3.153 0.363,6.29 -0.262,9.413 l 0,0 c -0.414,2.069 -1.261,3.871 -3.097,5.077 l 0,0 c -1.29,0.846 -1.584,0.836 -2.844,0.04 l 0,0 c -1.911,-1.206 -3.083,-3.015 -4.03,-4.978 l 0,0 c -0.204,-0.421 -0.17,-1.117 0.038,-1.551 l 0,0 c 0.825,-1.725 1.764,-3.395 2.658,-5.088 l 0,0 c 0.307,-0.582 0.704,-0.985 1.436,-0.98 l 0,0 c 0.339,0.002 0.679,-0.164 1.264,-0.319 l 0,0 c -0.128,-1.828 -0.199,-3.603 -0.388,-5.364 l 0,0 c -0.242,-2.258 -0.579,-4.506 -0.918,-7.089 l 0,0 c 1.999,0.266 3.348,1.12 4.647,2.05 l 0,0 c 2.33,1.669 3.891,3.976 5.068,6.523 l 0,0 c 1.369,2.967 2.52,6.037 3.897,9.001 l 0,0 c 0.907,1.955 1.999,3.83 3.098,5.688 l 0,0 c 0.487,0.823 1.024,0.876 1.633,0.178 l 0,0 c 0.594,-0.682 1.124,-1.486 1.444,-2.326 l 0,0 c 0.443,-1.161 0.662,-2.407 1.051,-3.899 l 0,0 c 1.029,0.986 1.934,1.796 2.776,2.667 l 0,0 c 3.13,3.231 2.621,3.985 1.358,7.433 l 0,0 c -0.062,0.172 -0.172,0.326 -0.265,0.487 l 0,0 c -0.775,1.319 -1.897,1.997 -3.213,1.997 l 0,0 c -0.491,0 -1.009,-0.094 -1.545,-0.285"
               style="fill:url(#linearGradient3554);stroke:none"
               id="path3564"
               inkscape:connector-curvature="0" />
          </g>
        </g>
      </g>
    </g>
    <g
       transform="matrix(1.25,0,0,-1.25,-19.376084,1363.2194)"
       id="g3566">
      <g
         id="g3568"
         clip-path="url(#clipPath3570)">
        <g
           id="g3574">
          <g
             id="g3576">
            <path
               d="m 266.872,654.01 c -0.644,-0.578 -1.305,-1.145 -1.875,-1.792 l 0,0 c -1.47,-1.67 -2.903,-3.375 -4.326,-5.087 l 0,0 c -0.211,-0.254 -0.284,-0.624 -0.445,-0.994 l 0,0 c 0.302,-0.049 0.508,-0.151 0.653,-0.095 l 0,0 c 1.728,0.672 3.527,0.68 5.301,0.413 l 0,0 c 3.171,-0.479 6.324,-1.086 9.481,-1.663 l 0,0 c 0.193,-0.036 0.349,-0.279 0.77,-0.633 l 0,0 c -1.112,-0.509 -1.996,-1.057 -2.957,-1.329 l 0,0 c -3.914,-1.109 -7.853,-2.126 -11.779,-3.193 l 0,0 c -1.888,-0.513 -3.765,-1.06 -5.647,-1.592 l 0,0 c -0.006,-0.164 -0.012,-0.328 -0.017,-0.492 l 0,0 c 0.398,-0.093 0.794,-0.255 1.194,-0.267 l 0,0 c 1.539,-0.045 3.081,-0.008 4.62,-0.064 l 0,0 c 2.098,-0.078 4.198,-0.348 6.289,-0.288 l 0,0 c 2.703,0.077 4.907,1.551 7.063,3.014 l 0,0 c 5.103,3.461 9.526,7.675 13.526,12.347 l 0,0 c 0.251,0.293 0.417,0.659 0.724,1.153 l 0,0 c -0.524,0.048 -0.816,0.11 -1.106,0.097 l 0,0 c -2.487,-0.113 -4.931,0.133 -7.355,0.72 l 0,0 c -2.279,0.553 -4.59,0.975 -6.872,1.516 l 0,0 c -0.733,0.175 -1.443,0.263 -2.131,0.263 l 0,0 c -1.874,0 -3.578,-0.658 -5.111,-2.034"
               style="fill:url(#linearGradient3578);stroke:none"
               id="path3588"
               inkscape:connector-curvature="0" />
          </g>
        </g>
      </g>
    </g>
    <g
       transform="matrix(1.25,0,0,-1.25,-19.376084,1363.2194)"
       id="g3590">
      <g
         id="g3592"
         clip-path="url(#clipPath3594)">
        <g
           id="g3598">
          <g
             id="g3600">
            <path
               d="m 362.596,627.08 c -2.299,-3.217 -5.301,-5.701 -8.478,-7.96 l 0,0 c -2.817,-2.004 -5.761,-3.831 -8.68,-5.687 l 0,0 c -1.841,-1.172 -3.505,-2.492 -4.797,-4.295 l 0,0 c -2.678,-3.736 -3.663,-8.049 -4.405,-12.454 l 0,0 c -0.037,-0.215 0.198,-0.476 0.391,-0.903 l 0,0 c 0.735,1.179 1.378,2.154 1.966,3.161 l 0,0 c 2.134,3.656 4.988,6.565 8.685,8.674 l 0,0 c 2.574,1.469 5.067,3.083 7.608,4.611 l 0,0 c 5.811,3.49 7.544,9.251 8.837,15.736 l 0,0 c -0.588,-0.452 -0.934,-0.613 -1.127,-0.883"
               style="fill:url(#linearGradient3602);stroke:none"
               id="path3612"
               inkscape:connector-curvature="0" />
          </g>
        </g>
      </g>
    </g>
  </g>
</svg>
